<svg width="111" height="24" viewBox="0 0 111 24" fill="none" xmlns="http://www.w3.org/2000/svg">
<path d="M1.008 18H0.72L7.896 1.2L8.16 1.08L14.208 18H12.168L10.296 12.72H3.288L1.008 18ZM7.152 3.792L3.384 12.48H10.224L7.152 3.792ZM18.7033 18C17.2953 18 16.4073 17.632 16.0393 16.896C15.9593 16.736 15.9193 16.592 15.9193 16.464V0.0239997H17.5993V16.296C17.5993 16.76 17.6873 17.12 17.8633 17.376C18.0553 17.616 18.2473 17.744 18.4393 17.76L18.7033 17.808H19.4473V18H18.7033ZM21.6936 12.144C21.6936 14.128 22.0376 15.584 22.7256 16.512C23.4296 17.44 24.3496 17.904 25.4856 17.904C27.0856 17.904 28.5096 17.664 29.7576 17.184L29.8296 17.352C28.5496 17.848 27.1016 18.096 25.4856 18.096C23.8856 18.096 22.5816 17.616 21.5736 16.656C20.5656 15.696 20.0616 14.216 20.0616 12.216C20.0616 10.216 20.5896 8.664 21.6456 7.56C22.7016 6.456 24.0456 5.904 25.6776 5.904C26.9896 5.904 28.0936 6.296 28.9896 7.08C29.8856 7.864 30.3336 9.024 30.3336 10.56C30.3336 10.64 30.3336 10.72 30.3336 10.8H21.7656C21.7176 11.232 21.6936 11.68 21.6936 12.144ZM28.7016 10.608C28.6856 9.072 28.3896 7.936 27.8136 7.2C27.2376 6.464 26.4936 6.096 25.5816 6.096C24.6696 6.096 23.8536 6.496 23.1336 7.296C22.4296 8.096 21.9816 9.2 21.7896 10.608H28.7016ZM31.4494 18V17.808C31.7854 17.808 32.1214 17.68 32.4574 17.424C32.8094 17.168 33.0734 16.912 33.2494 16.656L36.2494 12.24L31.9774 6H33.7294L37.4014 11.352L40.9534 6H41.1934L37.4974 11.52L41.9614 18H40.2094L36.3454 12.384L33.7534 16.272C33.7214 16.32 33.6814 16.384 33.6334 16.464C33.5854 16.544 33.4814 16.68 33.3214 16.872C33.1614 17.064 32.9934 17.232 32.8174 17.376C32.3374 17.792 31.8814 18 31.4494 18ZM44.4769 1.392C46.3329 1.264 47.9729 1.2 49.3969 1.2C53.3489 1.2 55.3249 2.52 55.3249 5.16C55.3249 6.28 55.0529 7.28 54.5089 8.16C53.9649 9.04 53.0289 9.624 51.7009 9.912L56.5009 18H54.2689L49.5649 10.056H46.4689V18H44.4769V1.392ZM49.3969 1.44C48.4689 1.44 47.4929 1.496 46.4689 1.608V9.816H50.0209C52.2769 9.72 53.4049 8.184 53.4049 5.208C53.4049 3.992 53.0689 3.064 52.3969 2.424C51.7249 1.768 50.7249 1.44 49.3969 1.44ZM59.8029 12.144C59.8029 14.128 60.1469 15.584 60.8349 16.512C61.5389 17.44 62.4589 17.904 63.5949 17.904C65.1949 17.904 66.6189 17.664 67.8669 17.184L67.9389 17.352C66.6589 17.848 65.2109 18.096 63.5949 18.096C61.9949 18.096 60.6909 17.616 59.6829 16.656C58.6749 15.696 58.1709 14.216 58.1709 12.216C58.1709 10.216 58.6989 8.664 59.7549 7.56C60.8109 6.456 62.1549 5.904 63.7869 5.904C65.0989 5.904 66.2029 6.296 67.0989 7.08C67.9949 7.864 68.4429 9.024 68.4429 10.56C68.4429 10.64 68.4429 10.72 68.4429 10.8H59.8749C59.8269 11.232 59.8029 11.68 59.8029 12.144ZM66.8109 10.608C66.7949 9.072 66.4989 7.936 65.9229 7.2C65.3469 6.464 64.6029 6.096 63.6909 6.096C62.7789 6.096 61.9629 6.496 61.2429 7.296C60.5389 8.096 60.0909 9.2 59.8989 10.608H66.8109ZM75.7635 6.096C74.6275 6.096 73.6755 6.64 72.9075 7.728C72.1555 8.816 71.7795 10.32 71.7795 12.24C71.7795 14.16 72.1235 15.584 72.8115 16.512C73.5155 17.44 74.4355 17.904 75.5715 17.904C76.9955 17.904 78.2595 17.664 79.3635 17.184L79.4355 17.352C78.2995 17.848 76.9715 18.096 75.4515 18.096C73.9315 18.096 72.6675 17.616 71.6595 16.656C70.6515 15.696 70.1475 14.216 70.1475 12.216C70.1475 10.216 70.6755 8.664 71.7315 7.56C72.7875 6.456 74.1315 5.904 75.7635 5.904C76.6755 5.904 77.5155 6.112 78.2835 6.528C79.0675 6.944 79.6435 7.576 80.0115 8.424H78.4755C78.2355 7.64 77.8675 7.056 77.3715 6.672C76.8915 6.288 76.3555 6.096 75.7635 6.096ZM84.1502 18C83.4942 18 82.9902 17.856 82.6382 17.568C82.3022 17.28 82.1262 16.992 82.1102 16.704L82.0862 16.296V6H83.7662V16.296C83.7662 16.76 83.8542 17.12 84.0302 17.376C84.2222 17.616 84.4062 17.744 84.5822 17.76L84.8702 17.808H85.6142V18H84.1502ZM82.2302 3.312C82.0382 3.12 81.9422 2.88 81.9422 2.592C81.9422 2.304 82.0382 2.064 82.2302 1.872C82.4222 1.664 82.6622 1.56 82.9502 1.56C83.2382 1.56 83.4782 1.664 83.6702 1.872C83.8782 2.064 83.9822 2.304 83.9822 2.592C83.9822 2.88 83.8782 3.12 83.6702 3.312C83.4782 3.504 83.2382 3.6 82.9502 3.6C82.6622 3.6 82.4222 3.504 82.2302 3.312ZM87.3094 6H88.9894V8.976C89.2614 8.24 89.7654 7.544 90.5014 6.888C91.2374 6.232 92.0694 5.904 92.9974 5.904C96.2454 5.904 97.8694 7.808 97.8694 11.616C97.8694 15.936 95.7734 18.096 91.5814 18.096C90.8294 18.096 89.9654 17.92 88.9894 17.568V24H87.3094V6ZM92.9734 6.096C91.9814 6.096 91.0854 6.528 90.2854 7.392C89.4854 8.24 89.0534 9.008 88.9894 9.696V17.352C89.9654 17.72 90.8214 17.904 91.5574 17.904C94.6454 17.904 96.1894 15.8 96.1894 11.592C96.1894 7.928 95.1174 6.096 92.9734 6.096ZM101.428 12.144C101.428 14.128 101.772 15.584 102.46 16.512C103.164 17.44 104.084 17.904 105.22 17.904C106.82 17.904 108.244 17.664 109.492 17.184L109.564 17.352C108.284 17.848 106.836 18.096 105.22 18.096C103.62 18.096 102.316 17.616 101.308 16.656C100.3 15.696 99.7959 14.216 99.7959 12.216C99.7959 10.216 100.324 8.664 101.38 7.56C102.436 6.456 103.78 5.904 105.412 5.904C106.724 5.904 107.828 6.296 108.724 7.08C109.62 7.864 110.068 9.024 110.068 10.56C110.068 10.64 110.068 10.72 110.068 10.8H101.5C101.452 11.232 101.428 11.68 101.428 12.144ZM108.436 10.608C108.42 9.072 108.124 7.936 107.548 7.2C106.972 6.464 106.228 6.096 105.316 6.096C104.404 6.096 103.588 6.496 102.868 7.296C102.164 8.096 101.716 9.2 101.524 10.608H108.436Z" fill="white"/>
</svg>
